<svg width="80" height="68" viewBox="0 0 80 68" fill="none" xmlns="http://www.w3.org/2000/svg">
<rect x="0.5" y="0.5" width="79" height="67" rx="24.5" fill="#064DFE"/>
<rect x="0.5" y="0.5" width="79" height="67" rx="24.5" stroke="#064DFE"/>
<path d="M23.8295 53.81C21.9095 53.63 20.3045 53.18 19.0145 52.46C17.7545 51.74 16.8095 50.63 16.1795 49.13C15.5795 47.63 15.2795 45.65 15.2795 43.19C15.2795 41.33 15.1595 39.875 14.9195 38.825C14.6795 37.775 14.2445 37.01 13.6145 36.53C12.9845 36.02 12.0995 35.69 10.9595 35.54V32.66C12.0995 32.51 12.9845 32.195 13.6145 31.715C14.2445 31.205 14.6795 30.425 14.9195 29.375C15.1595 28.295 15.2795 26.84 15.2795 25.01C15.2795 22.52 15.5795 20.54 16.1795 19.07C16.8095 17.57 17.7545 16.46 19.0145 15.74C20.3045 15.02 21.9095 14.57 23.8295 14.39V16.955C22.7195 17.225 21.8195 17.63 21.1295 18.17C20.4395 18.68 19.9445 19.46 19.6445 20.51C19.3445 21.56 19.1945 23 19.1945 24.83C19.1945 27.05 19.0295 28.79 18.6995 30.05C18.3695 31.28 17.8295 32.195 17.0795 32.795C16.3295 33.365 15.3245 33.8 14.0645 34.1C15.3245 34.4 16.3295 34.85 17.0795 35.45C17.8295 36.02 18.3695 36.92 18.6995 38.15C19.0295 39.38 19.1945 41.12 19.1945 43.37C19.1945 45.2 19.3445 46.64 19.6445 47.69C19.9445 48.74 20.4395 49.52 21.1295 50.03C21.8195 50.57 22.7195 50.975 23.8295 51.245V53.81ZM28.1857 48.5V17H33.8557L47.7607 43.19V17H51.8107V48.5H46.2307L32.2357 22.49V48.5H28.1857ZM56.1793 53.81V51.245C57.3193 50.975 58.2193 50.57 58.8793 50.03C59.5693 49.52 60.0643 48.74 60.3643 47.69C60.6643 46.64 60.8143 45.2 60.8143 43.37C60.8143 41.12 60.9793 39.38 61.3093 38.15C61.6393 36.92 62.1793 36.02 62.9293 35.45C63.6793 34.85 64.6843 34.4 65.9443 34.1C64.6843 33.8 63.6793 33.365 62.9293 32.795C62.1793 32.195 61.6393 31.28 61.3093 30.05C60.9793 28.79 60.8143 27.05 60.8143 24.83C60.8143 23 60.6643 21.56 60.3643 20.51C60.0643 19.46 59.5693 18.68 58.8793 18.17C58.2193 17.63 57.3193 17.225 56.1793 16.955V14.39C58.1293 14.57 59.7343 15.02 60.9943 15.74C62.2543 16.46 63.1843 17.57 63.7843 19.07C64.4143 20.54 64.7293 22.52 64.7293 25.01C64.7293 26.84 64.8493 28.295 65.0893 29.375C65.3293 30.425 65.7643 31.205 66.3943 31.715C67.0243 32.195 67.9093 32.51 69.0493 32.66V35.54C67.9093 35.69 67.0243 36.02 66.3943 36.53C65.7643 37.01 65.3293 37.775 65.0893 38.825C64.8493 39.875 64.7293 41.33 64.7293 43.19C64.7293 45.65 64.4143 47.63 63.7843 49.13C63.1843 50.63 62.2543 51.74 60.9943 52.46C59.7343 53.18 58.1293 53.63 56.1793 53.81Z" fill="white"/>
</svg>
